<svg width="16" height="17" viewBox="0 0 16 17" fill="none" xmlns="http://www.w3.org/2000/svg">
<path d="M15.2227 15.2227H0.778212C0.630869 15.2227 0.489562 15.2812 0.385375 15.3854C0.281188 15.4896 0.222656 15.6309 0.222656 15.7782C0.222656 15.9256 0.281188 16.0669 0.385375 16.171C0.489562 16.2752 0.630869 16.3338 0.778212 16.3338H15.2227C15.37 16.3338 15.5113 16.2752 15.6155 16.171C15.7197 16.0669 15.7782 15.9256 15.7782 15.7782C15.7782 15.6309 15.7197 15.4896 15.6155 15.3854C15.5113 15.2812 15.37 15.2227 15.2227 15.2227Z" fill="#02336E"/>
<path d="M7.9991 14.3782L13.8935 8.48377C13.9846 8.37749 14.0321 8.24078 14.0267 8.10096C14.0213 7.96114 13.9633 7.82851 13.8644 7.72957C13.7655 7.63062 13.6328 7.57266 13.493 7.56726C13.3532 7.56186 13.2165 7.60942 13.1102 7.70043L8.55465 12.2504V0.778212C8.55465 0.630869 8.49612 0.489562 8.39193 0.385375C8.28775 0.281188 8.14644 0.222656 7.9991 0.222656C7.85175 0.222656 7.71044 0.281188 7.60626 0.385375C7.50207 0.489562 7.44354 0.630869 7.44354 0.778212V12.2504L2.89354 7.70043C2.84374 7.64228 2.78245 7.59504 2.71352 7.5617C2.6446 7.52835 2.56952 7.50961 2.49301 7.50666C2.4165 7.5037 2.34021 7.51659 2.26892 7.54453C2.19762 7.57246 2.13288 7.61482 2.07873 7.66896C2.02459 7.7231 1.98223 7.78785 1.9543 7.85914C1.92637 7.93044 1.91347 8.00673 1.91643 8.08324C1.91938 8.15975 1.93812 8.23483 1.97147 8.30375C2.00482 8.37268 2.05205 8.43396 2.11021 8.48377L7.9991 14.3782Z" fill="#02336E"/>
</svg>
